<svg xmlns="http://www.w3.org/2000/svg" id="图层_1" data-name="图层 1" viewBox="0 0 42 50">
  <defs>
    <style>.cd-svg-logo-blue-1{fill:#2375f9;}.cd-svg-logo-blue-2{fill:#e7008a;}.cd-svg-logo-blue-3{fill:#186dea;}
    </style>
  </defs>
  <title>logo</title>
  <path class="cd-svg-logo-blue-1"
        d="M39.8,22.3l-6.6-8.6-.3-.3a2.5,2.5,0,0,0-1.7-.9L27.7,12a2.6,2.6,0,0,0-1.9.5L10,24.9a2.3,2.3,0,0,0-.4,3.2l.5.6a2.3,2.3,0,0,0,3.2.4L28.2,17.6a2.3,2.3,0,0,1,3.2.4l3.5,4.5a2.3,2.3,0,0,1-.4,3.2L16,40a1.4,1.4,0,0,0-.3,1.9h0l4.6,5.9a.6.6,0,0,0,1-.2l1.7-5.4.3-.2L39,29.8a2.9,2.9,0,0,0,1.1-2l.4-3.2A3.2,3.2,0,0,0,39.8,22.3Z"/>
  <path class="cd-svg-logo-blue-2"
        d="M32.2,22.1,31,20.5a1.7,1.7,0,0,0-2.4-.3L12.8,32.6a1.7,1.7,0,0,1-2.4-.3L6.2,26.9a1.7,1.7,0,0,1,.3-2.4L25.4,9.8a1.3,1.3,0,0,0,.5-.7,1,1,0,0,0-.1-.9.9.9,0,0,0-.6-.4h0l-5.5-.4a2.4,2.4,0,0,0-1.7.5L2.4,20a2.8,2.8,0,0,0-1.1,1.9L1,25.3a2.9,2.9,0,0,0,.6,2.1l6.7,8.7.4.5a1.9,1.9,0,0,0,1.3.7l4,.4a2,2,0,0,0,1.4-.4L31.9,24.5A1.7,1.7,0,0,0,32.2,22.1Z"/>
  <rect class="cd-svg-logo-blue-2" x="23.3" y="5.8" width="1.2" height="1.23" rx="0.2" ry="0.2"
        transform="translate(14 -16.3) rotate(51.5)"/>
  <rect class="cd-svg-logo-blue-2" x="20.1" y="5.7" width="1.4" height="1.37" rx="0.2" ry="0.2"
        transform="translate(12.8 -13.8) rotate(51.5)"/>
  <rect class="cd-svg-logo-blue-2" x="26.2" y="6.3" width="1" height="0.98" rx="0.2" ry="0.2"
        transform="translate(15.3 -18.3) rotate(51.5)"/>
  <rect class="cd-svg-logo-blue-2" x="25.2" y="4.5" width="0.9" height="0.86" rx="0.2" ry="0.2"
        transform="matrix(0.62, 0.78, -0.78, 0.62, 13.53, -18.16)"/>
  <rect class="cd-svg-logo-blue-2" x="22.2" y="4.3" width="1" height="1.03" rx="0.2" ry="0.2"
        transform="translate(12.3 -16) rotate(51.5)"/>
  <rect class="cd-svg-logo-blue-2" x="25.7" y="2.1" width="0.7" height="0.69" rx="0.1" ry="0.1"
        transform="translate(11.7 -19.4) rotate(51.5)"/>
  <rect class="cd-svg-logo-blue-2" x="24.1" y="3.2" width="0.8" height="0.78" rx="0.1" ry="0.1"
        transform="translate(12 -17.8) rotate(51.5)"/>
</svg>
